<svg width="16" height="28" viewBox="0 0 16 28" fill="none" xmlns="http://www.w3.org/2000/svg">
<path d="M13.8312 14.0549H13.7874L14.2507 4.1568C14.2613 3.9305 14.0865 3.73849 13.8602 3.72794C13.6339 3.71705 13.4419 3.89222 13.4313 4.11846L12.9663 14.0549H3.0337L2.64536 5.76007C2.50422 2.74455 2.51231 2.93973 2.51231 2.86891C2.51231 1.73934 3.43232 0.820312 4.56314 0.820312H11.4367C12.5675 0.820312 13.4875 1.73934 13.4875 2.86891C13.4875 2.93601 13.4901 2.86355 13.4313 4.11846C13.4207 4.3447 13.5955 4.53671 13.8218 4.54732C14.048 4.55831 14.2401 4.38309 14.2507 4.1568C14.3093 2.90544 14.3079 2.96144 14.3079 2.86891C14.3079 1.28696 13.0199 0 11.4367 0H4.5632C2.98005 0 1.69205 1.28696 1.69205 2.86891C1.69205 2.96603 1.68352 2.75466 1.82603 5.79841L2.21257 14.0549H2.16876C1.3998 14.0549 0.774231 14.6805 0.774231 15.4494V17.4832C0.774231 18.2521 1.3998 18.8777 2.16876 18.8777H2.451V23.3894C2.451 23.6159 2.63464 23.7996 2.86116 23.7996C3.08768 23.7996 3.27132 23.6159 3.27132 23.3894V18.8777H4.5026L3.93435 26.8713C3.92204 27.0442 3.77663 27.1797 3.60321 27.1797C3.42018 27.1797 3.27132 27.0308 3.27132 26.8478V23.3894C3.27132 23.1629 3.08768 22.9792 2.86116 22.9792C2.63464 22.9792 2.451 23.1629 2.451 23.3894V26.8478C2.451 27.4831 2.96791 28 3.60321 28C4.20505 28 4.70987 27.5297 4.75258 26.9294L5.325 18.8777H10.6752L11.2476 26.9295C11.2901 27.5297 11.795 28 12.3968 28C13.0322 28 13.549 27.4831 13.549 26.8478V18.8777H13.8312C14.6002 18.8777 15.2258 18.2521 15.2258 17.4832V15.4494C15.2258 14.6805 14.6002 14.0549 13.8312 14.0549ZM12.7287 26.8478C12.7287 27.0308 12.5798 27.1797 12.3968 27.1797C12.2234 27.1797 12.078 27.0442 12.0657 26.8713L11.4974 18.8777H12.7287V26.8478ZM14.4055 17.4832C14.4055 17.7998 14.1479 18.0574 13.8312 18.0574C12.5627 18.0574 3.42592 18.0574 2.16865 18.0574C1.85201 18.0574 1.59443 17.7998 1.59443 17.4832V15.4494C1.59443 15.1328 1.85201 14.8752 2.16865 14.8752H13.8312C14.1479 14.8752 14.4055 15.1328 14.4055 15.4494V17.4832Z" fill="#909090"/>
</svg>
